/* XPM */
static char *electrontubes1[] = {
/* columns rows colors chars-per-pixel */
"32 32 84 1 ",
"  c #241615",
". c #271917",
"X c #2C1D1C",
"o c #31201E",
"O c #2D2222",
"+ c #302321",
"@ c #362A2A",
"# c #392C2C",
"$ c #43312F",
"% c #4E3A36",
"& c #4B3C3B",
"* c #503E3B",
"= c #4D4142",
"- c #524544",
"; c #574C4E",
": c #5B4D4D",
"> c #584E52",
", c #5C5152",
"< c #5D5459",
"1 c #61504F",
"2 c #625459",
"3 c #655B5D",
"4 c #6C5E5E",
"5 c #655554",
"6 c #665E62",
"7 c #6A5F62",
"8 c #6D6366",
"9 c #6D656A",
"0 c #6E686C",
"q c #726565",
"w c #72676A",
"e c #746A6D",
"r c #796D6E",
"t c #746C72",
"y c #7C6F71",
"u c #7D7274",
"i c #7F7679",
"p c #827576",
"a c #82767A",
"s c #84797B",
"d c #897D7E",
"f c #877C81",
"g c #8B7E81",
"h c #907F85",
"j c #8C8284",
"k c #8F8689",
"l c #8F8B8C",
"z c #918386",
"x c #938886",
"c c #92868C",
"v c #98878F",
"b c #93898C",
"n c #988C8E",
"m c #938B91",
"M c #998D92",
"N c #959094",
"B c #9C9296",
"V c #979298",
"C c #9D949A",
"Z c #9E999C",
"A c #A09096",
"S c #A3969C",
"D c #A29A9D",
"F c #A59AA1",
"G c #AA9FA3",
"H c #A6A1A3",
"J c #AAA3A5",
"K c #ABA5A8",
"L c #AFA9AE",
"P c #B2A5AD",
"I c #B2AAAD",
"U c #B5ACB3",
"Y c #B6B1B5",
"T c #BCB4BC",
"R c #C0B6C2",
"E c #C4BBC6",
"W c #C6BFCB",
"Q c #C4C0C6",
"! c #CBC1C4",
"~ c #C6C0CB",
"^ c #CDC6C8",
"/ c #CBC9CA",
"( c #D9D5D6",
") c None",
/* pixels */
"))))))))))))))Duk)))))))))))))))",
"))))))))))))))G<w)))))))))))))))",
"))))))))))))JZ85;eNZ))))))))))))",
"))))))))))Klgr,&-,wab)))))))))))",
")))))))))Ujssr3-=:4wqrD)))))))))",
")))))))))l>=-,>-&&&&*1s)))))))))",
")))))))))eX Xx))@.o$%%r)))))))))",
")))))))))0@ .q))O +$-5s)))))))))",
")))))))))s4&o.oo. #:qej)))))))))",
")))))))))Dgdr-#O@=quuim)))))))))",
")))))))))EJbnnbseypajDY)))))))))",
")))))))))EUGAMnjgdjnDPT)))))))))",
")))))))))TLFccbdddzxCGI)))))))))",
")))))))))TSCzauyywugvVU)))))))))",
")))))))))UcjgpyuywrwufI)))))))))",
")))))))))RBzjspdpaapabY)))))))))",
")))))))))WMwtisipupuumT)))))))))",
")))))))))WZ988836;8acmY)))))))))",
")))))))))~Zeett69<9etVY)))))))))",
")))))))))WNttt0<e<t>>mU)))))))))",
")))))))))~Vtttt60<t69mU)))))))))",
")))))))))Tmt0tt90<rjkjK)))))))))",
")))))))))Lbi0098e7tyyiF)))))))))",
")))))))))TFmjdasaazaajH)))))))))",
")))))))))EEPzsjjdpppujH)))))))))",
")))))))))QUSxzgaprrpruD)))))))))",
")))))))))YSMvSvzhddputV)))))))))",
")))))))))KBVzMASnAbpadz)))))))))",
"))))))))))jjghzMzjsasj))))))))))",
"))))))))))(DfspapriumU))))))))))",
"))))))))))))SgttiljB!)))))))))))",
"))))))))))))K))))/)J^)))))))))))"
};
